<?xml version="1.0" standalone="no"?>
<!DOCTYPE svg PUBLIC "-//W3C//DTD SVG 20010904//EN"
 "http://www.w3.org/TR/2001/REC-SVG-20010904/DTD/svg10.dtd">
<svg version="1.0" xmlns="http://www.w3.org/2000/svg"
 width="200.000000pt" height="200.000000pt" viewBox="0 0 200.000000 200.000000"
 preserveAspectRatio="xMidYMid meet">
<metadata>
Created by potrace 1.15, written by Peter Selinger 2001-2017
</metadata>
<g transform="translate(0.000000,200.000000) scale(0.100000,-0.100000)"
fill="#000000" stroke="none">
<path d="M0 1000 l0 -1000 1000 0 1000 0 0 1000 0 1000 -1000 0 -1000 0 0
-1000z m1117 670 c17 -10 37 -28 43 -39 9 -17 21 -21 63 -21 56 0 108 -24 126
-58 6 -11 14 -46 17 -78 5 -43 13 -63 29 -76 37 -29 47 -69 44 -167 -4 -85 -6
-92 -35 -123 -25 -26 -33 -45 -39 -92 -6 -49 -13 -66 -40 -93 -30 -30 -39 -33
-90 -33 -49 0 -60 -4 -77 -25 -33 -43 -70 -55 -161 -55 -88 0 -118 12 -155 62
-10 13 -27 18 -63 18 -92 0 -139 45 -139 135 0 39 -5 51 -35 82 -40 41 -49 76
-43 173 3 65 6 72 41 108 31 32 37 45 37 81 0 90 50 141 137 141 42 0 54 5 79
31 40 42 56 48 149 48 62 1 87 -3 112 -19z m-4 -890 c54 0 57 -1 57 -25 l0
-25 176 0 c167 0 176 1 181 20 5 17 14 20 64 20 52 0 59 -2 59 -20 0 -15 7
-20 29 -20 45 0 55 -20 48 -105 -3 -40 -11 -87 -19 -102 l-13 -28 -255 1
c-140 1 -247 -1 -237 -3 9 -3 17 -9 17 -14 0 -5 16 -9 35 -9 l35 0 0 -57 c0
-32 -6 -69 -13 -83 l-13 -25 -162 -1 c-89 -1 -165 2 -168 7 -3 5 -54 9 -115 9
l-109 0 0 85 c0 74 -2 85 -18 85 -9 0 -23 -9 -30 -20 -10 -16 -23 -20 -73 -20
-65 0 -99 12 -99 35 0 12 -20 15 -110 15 l-110 0 0 53 c0 28 11 90 24 137 l23
85 107 3 106 3 0 -26 c0 -24 3 -25 55 -25 48 0 55 2 55 20 0 18 7 20 56 20 47
0 57 -3 61 -20 4 -16 14 -20 48 -20 40 0 44 2 50 31 l7 32 97 -7 c53 -3 122
-6 154 -6z"/>
</g>
</svg>
